<svg xmlns="http://www.w3.org/2000/svg" viewBox="0 0 640 520" preserveAspectRatio="xMidYMid slice"><defs>
<radialGradient id="bg" cx="40%" cy="35%" r="85%"><stop offset="0" stop-color="#f6dcaa"/><stop offset=".55" stop-color="#deb377"/><stop offset="1" stop-color="#b98a4c"/></radialGradient>
<linearGradient id="g" x1="0" y1="0" x2="1" y2="1"><stop offset="0" stop-color="#fff2c6"/><stop offset=".35" stop-color="#e3b44c"/><stop offset=".65" stop-color="#a87418"/><stop offset="1" stop-color="#f4d47e"/></linearGradient>
<linearGradient id="w" x1="0" y1="0" x2="1" y2="1"><stop offset="0" stop-color="#ffffff"/><stop offset=".4" stop-color="#d9d9dc"/><stop offset=".7" stop-color="#9a9aa2"/><stop offset="1" stop-color="#f1f1f3"/></linearGradient>
<filter id="s" x="-20%" y="-20%" width="140%" height="160%"><feDropShadow dx="0" dy="10" stdDeviation="9" flood-color="#6b4512" flood-opacity=".35"/></filter>
<pattern id="sp" width="46" height="46" patternUnits="userSpaceOnUse"><circle cx="8" cy="10" r="1.3" fill="#fff6dc" opacity=".8"/><circle cx="30" cy="34" r="1" fill="#fff" opacity=".6"/></pattern>
</defs>
<rect width="640" height="520" fill="url(#bg)"/><rect width="640" height="520" fill="url(#sp)" opacity=".55"/>
<ellipse cx="420" cy="80" rx="260" ry="90" fill="#fff4d6" opacity=".25"/><path d="M150 360 L420 300 L560 380 L290 450 Z" fill="#f3e0bb" filter="url(#s)"/><path d="M290 450 L560 380 L560 400 L290 472 Z" fill="#d7b77d"/><path d="M150 360 L290 450 L290 472 L150 382 Z" fill="#e6c992"/><g filter="url(#s)"><ellipse cx="230" cy="340" rx="42" ry="18" fill="none" stroke="url(#g)" stroke-width="10"/><ellipse cx="270" cy="350" rx="42" ry="18" fill="none" stroke="url(#w)" stroke-width="10"/><ellipse cx="350" cy="320" rx="42" ry="18" fill="none" stroke="url(#g)" stroke-width="10"/><ellipse cx="390" cy="330" rx="42" ry="18" fill="none" stroke="url(#w)" stroke-width="10"/><ellipse cx="320" cy="395" rx="42" ry="18" fill="none" stroke="url(#g)" stroke-width="10"/><ellipse cx="360" cy="405" rx="42" ry="18" fill="none" stroke="url(#w)" stroke-width="10"/></g><path d="M430 60 C560 120 600 250 640 300 L640 0 L470 0 Z" fill="#f0d39b" opacity=".7"/></svg>